<svg height="512" viewBox="0 0 512 512" width="512" xmlns="http://www.w3.org/2000/svg"><path d="m488 255c0 128.13-103.87 232-232 232a231.854 231.854 0 0 1 -232-232c0-128.13 103.87-232 232-232s232 103.87 232 232z" fill="#ebebe9"/><circle cx="256" cy="255" fill="#48add9" r="192"/><circle cx="256" cy="255" fill="#4db7e5" r="168"/><path d="m64.87 235-3.35 18.4c-1.35-5.13 1.9-12.27 3.35-18.4z" fill="#e0e0de"/><path d="m65.44 231.87a25.332 25.332 0 0 1 -.57 3.13z" fill="#e0e0de"/><path d="m131.25 450.64a233.022 233.022 0 0 1 -84.44-95.21l1.2-27.82 13.51-74.21a7.246 7.246 0 0 0 2.48 3.89l.02.02a191.466 191.466 0 0 0 61.13 138.2z" fill="#e0e0de"/><path d="m387.51 282.12-.15.04a15.578 15.578 0 0 1 -19.36-15.11v7.79a15.584 15.584 0 0 1 -11.8 15.11l-.84.21a15.578 15.578 0 0 1 -19.36-15.11v3.95a16 16 0 0 1 -32 0v-4a20 20 0 0 1 -40 0v-252h104l5.84 45.36 25.45 197.78a15.58 15.58 0 0 1 -11.78 15.98z" fill="#fec9a3"/><path d="m387.51 282.12-.15.04a15.578 15.578 0 0 1 -19.36-15.11v7.79a15.584 15.584 0 0 1 -11.8 15.11l-.84.21a15.578 15.578 0 0 1 -19.36-15.11v3.95a16 16 0 0 1 -32 0v-4a20 20 0 0 1 -40 0v-39c37.69-32.1 84.19-85.72 109.84-167.64l25.45 197.78a15.58 15.58 0 0 1 -11.78 15.98z" fill="#fec093"/><path d="m264 23v308a20 20 0 0 1 -40 0v4a16 16 0 0 1 -32 0v-3.95a15.578 15.578 0 0 1 -19.36 15.11l-.84-.21a15.584 15.584 0 0 1 -11.8-15.11v-7.79a15.578 15.578 0 0 1 -19.36 15.11l-.15-.04a15.58 15.58 0 0 1 -11.78-15.98l7.74-58.96 31.55-240.18z" fill="#fec9a3"/><path d="m264 139.51v191.49a20 20 0 0 1 -40 0v4a16 16 0 0 1 -32 0v-3.95a15.578 15.578 0 0 1 -19.36 15.11l-.84-.21a15.584 15.584 0 0 1 -11.8-15.11v-7.79a15.578 15.578 0 0 1 -19.36 15.11l-.15-.04a15.58 15.58 0 0 1 -11.78-15.98l7.74-58.96c40.15-22.16 89.17-60.09 127.55-123.67z" fill="#fec093"/><path d="m466.167 121.832a32 32 0 0 0 -10.554-18.021l-47.613-40.811h-34.75s7.3 59.428 10.628 85.252l-33.114-22.076a22.2 22.2 0 0 0 -26.932 35.177l52.168 45.647 32 64-24 216h104v-256z" fill="#fed9bf"/><g fill="#f59898"><path d="m301.726 345.98a13.255 13.255 0 0 0 0 26.509 32 32 0 0 0 22.627-9.372l3.882-3.883-3.882-3.882a32.006 32.006 0 0 0 -22.627-9.372z"/><path d="m314.98 332.726a13.255 13.255 0 0 1 26.509 0 32 32 0 0 1 -9.372 22.627l-3.883 3.882-3.882-3.882a32.006 32.006 0 0 1 -9.372-22.627z"/><path d="m354.745 372.491a13.255 13.255 0 1 0 0-26.509 32 32 0 0 0 -22.627 9.372l-3.883 3.882 3.883 3.883a32 32 0 0 0 22.627 9.372z"/><path d="m341.491 385.745a13.255 13.255 0 1 1 -26.509 0 32 32 0 0 1 9.372-22.627l3.882-3.883 3.883 3.883a32 32 0 0 1 9.372 22.627z"/><path d="m230.628 378.882a13.255 13.255 0 0 0 -18.745 18.745 32 32 0 0 0 22.627 9.373h5.49v-5.49a32.005 32.005 0 0 0 -9.372-22.628z"/><path d="m249.372 378.882a13.255 13.255 0 0 1 18.745 18.745 32 32 0 0 1 -22.627 9.373h-5.49v-5.49a32.005 32.005 0 0 1 9.372-22.628z"/><path d="m249.372 435.118a13.255 13.255 0 0 0 18.745-18.745 32 32 0 0 0 -22.627-9.373h-5.49v5.49a32.005 32.005 0 0 0 9.372 22.628z"/><path d="m230.628 435.118a13.255 13.255 0 0 1 -18.745-18.745 32 32 0 0 1 22.627-9.373h5.49v5.49a32.005 32.005 0 0 1 -9.372 22.628z"/></g><path d="m224 343a8 8 0 0 1 -8-8v-24a8 8 0 0 1 16 0v24a8 8 0 0 1 -8 8z" fill="#f5af7d"/><path d="m192 343a8 8 0 0 1 -8-8v-24a8 8 0 0 1 16 0v24a8 8 0 0 1 -8 8z" fill="#f5af7d"/><path d="m160 335a8 8 0 0 1 -8-8v-16a8 8 0 0 1 16 0v16a8 8 0 0 1 -8 8z" fill="#f5af7d"/><path d="m202.161 224.4a22.2 22.2 0 0 0 -32.925-10.226l-28.87 19.246 4.834-36.82 5.99-45.6h-39.19l-47.613 40.811a32 32 0 0 0 -10.554 18.021l-21.833 109.168-8 168h96l-8-128 16.877-33.754 15.123-30.246 52.168-45.647a22.2 22.2 0 0 0 5.993-24.953z" fill="#fed9bf"/><path d="m304 247a8 8 0 0 0 -8 8v24a8 8 0 0 0 16 0v-24a8 8 0 0 0 -8-8z" fill="#f5af7d"/><path d="m336 247a8 8 0 0 0 -8 8v24a8 8 0 0 0 16 0v-24a8 8 0 0 0 -8-8z" fill="#f5af7d"/><path d="m368 247a8 8 0 0 0 -8 8v16a8 8 0 0 0 16 0v-16a8 8 0 0 0 -8-8z" fill="#f5af7d"/><path d="m256 279a8 8 0 0 0 16 0v-256h-16z" fill="#f5af7d"/></svg>